<?xml version="1.0" standalone="no"?>
<!DOCTYPE svg PUBLIC "-//W3C//DTD SVG 20010904//EN"
 "http://www.w3.org/TR/2001/REC-SVG-20010904/DTD/svg10.dtd">
<svg version="1.0" xmlns="http://www.w3.org/2000/svg"
 width="1024.000000pt" height="1024.000000pt" viewBox="0 0 1024.000000 1024.000000"
 preserveAspectRatio="xMidYMid meet">

<g transform="translate(0.000000,1024.000000) scale(0.100000,-0.100000)"
fill="#000000" stroke="none">
<path d="M0 5120 l0 -5120 5120 0 5120 0 0 5120 0 5120 -5120 0 -5120 0 0
-5120z m5119 4071 c115 -59 213 -263 262 -541 31 -177 25 -169 112 -151 180
36 283 -38 309 -223 l11 -73 62 -6 c139 -11 207 -93 172 -208 l-14 -46 61 -11
c106 -20 156 -76 156 -176 0 -34 -5 -78 -10 -98 -10 -34 -8 -40 24 -82 76
-101 86 -231 27 -360 l-31 -69 22 -15 c13 -9 46 -38 74 -66 101 -99 104 -222
8 -335 l-26 -31 64 -69 c84 -88 118 -156 118 -233 0 -66 -15 -108 -53 -154
l-26 -31 34 -16 c53 -25 114 -85 124 -123 15 -55 -4 -100 -71 -170 l-59 -62
43 -30 c57 -39 126 -115 144 -157 24 -58 18 -135 -15 -198 l-29 -56 34 -80
c57 -130 73 -240 46 -309 -3 -9 9 0 28 21 43 50 126 97 169 97 75 0 165 -88
208 -204 16 -42 19 -44 71 -55 102 -20 170 -77 186 -156 7 -35 -17 -136 -44
-182 l-18 -31 56 -22 c113 -42 182 -114 182 -188 0 -16 -13 -55 -29 -87 l-29
-57 28 -45 c16 -24 34 -66 40 -93 10 -41 9 -54 -5 -85 -10 -19 -26 -41 -35
-48 -17 -12 -16 -18 22 -95 37 -73 41 -90 41 -154 1 -83 -15 -126 -63 -182
l-33 -37 20 -22 c78 -85 68 -192 -23 -247 -22 -13 -41 -25 -42 -26 -2 -1 6
-30 18 -63 17 -47 21 -75 18 -127 -4 -60 -7 -70 -36 -95 -18 -16 -39 -29 -46
-29 -11 0 -13 -10 -9 -39 13 -94 -57 -213 -141 -241 -31 -10 -36 -16 -36 -43
0 -42 -40 -126 -76 -158 -37 -33 -89 -64 -134 -78 -35 -11 -35 -11 -32 -65 8
-130 -48 -248 -156 -327 l-61 -44 -1 -53 c0 -91 -33 -137 -112 -156 -26 -6
-28 -10 -28 -55 0 -27 -3 -57 -6 -66 -9 -21 -56 -45 -92 -45 -29 0 -30 -1 -34
-60 -7 -99 -62 -135 -166 -111 -47 12 -50 11 -100 -22 -63 -43 -119 -54 -160
-33 -16 8 -32 22 -36 31 -5 13 -9 12 -27 -6 -72 -72 -178 -60 -264 31 -22 23
-61 52 -87 66 -25 13 -55 35 -66 49 -37 47 -37 78 1 175 4 11 -9 22 -46 40
-73 35 -100 78 -95 151 l4 56 -44 -31 c-38 -27 -53 -31 -120 -34 -56 -2 -92 2
-131 16 l-55 18 -43 -24 c-75 -41 -208 -39 -295 5 -31 15 -34 10 -13 -27 18
-32 19 -133 1 -196 -8 -27 -17 -71 -21 -99 -14 -100 -69 -185 -119 -185 -12 0
-16 -11 -16 -45 0 -68 -30 -95 -108 -95 -32 0 -82 7 -111 16 l-54 16 -36 -36
c-96 -93 -224 -87 -317 17 l-38 41 -111 1 c-99 0 -116 3 -160 26 -30 15 -62
42 -80 68 -25 36 -30 54 -33 116 l-4 74 -37 12 c-92 30 -184 98 -217 162 -32
59 -35 164 -9 247 5 14 -8 28 -53 59 -103 70 -152 149 -152 246 0 64 16 108
64 175 l35 48 -31 13 c-80 33 -158 150 -158 235 0 58 48 162 113 248 5 7 -17
37 -56 77 -80 81 -108 134 -115 214 -6 78 17 134 84 205 41 43 46 54 36 68
-76 108 -106 194 -100 296 6 122 78 236 209 332 l48 35 -27 57 c-21 46 -26 72
-27 137 0 85 14 125 61 176 l24 25 -44 34 c-53 39 -102 97 -122 145 -23 55
-18 143 11 201 l25 50 -58 60 c-92 94 -115 197 -72 325 l21 60 -40 51 c-85
106 -123 227 -102 322 6 29 24 73 39 97 l28 43 -44 43 c-100 101 -125 238 -66
363 l31 66 -47 51 c-61 67 -90 126 -90 187 0 47 25 111 53 135 14 11 11 19
-16 63 -44 71 -44 141 -1 218 30 54 31 55 13 84 -45 74 -31 155 40 226 45 45
46 48 34 76 -7 16 -12 48 -13 72 0 73 26 116 123 198 28 24 37 39 37 63 0 18
10 55 21 82 l22 50 -51 107 c-79 168 -97 236 -97 372 0 99 3 121 22 156 75
141 220 197 347 135 88 -44 226 -206 292 -343 25 -54 51 -50 115 17 70 74 142
109 212 103 61 -5 110 -27 154 -68 l32 -30 37 55 c41 62 103 117 157 140 80
33 190 10 282 -61 l35 -27 60 57 c33 31 80 66 106 77 l46 21 -6 46 c-41 298
15 482 167 556 67 33 169 36 226 7z"/>
<path d="M5355 7361 c-37 -16 -83 -72 -94 -117 -38 -152 129 -268 260 -181 48
31 81 100 76 155 -6 54 -46 114 -90 135 -37 18 -118 22 -152 8z m19 -63 c8
-14 7 -21 -6 -34 -30 -30 -75 9 -48 42 16 18 39 15 54 -8z"/>
<path d="M4915 6819 c-38 -43 -72 -84 -76 -90 -4 -8 -38 -5 -110 9 -57 11
-120 23 -139 25 l-35 6 40 -19 c22 -11 77 -29 123 -42 l82 -23 0 -41 c0 -64
-25 -180 -59 -274 -25 -69 -27 -80 -11 -60 27 35 78 158 91 222 17 84 16 84
53 36 59 -77 163 -140 251 -152 31 -5 34 -4 14 3 -105 35 -224 133 -270 222
l-19 39 38 53 c54 74 105 157 100 162 -2 2 -35 -32 -73 -76z"/>
<path d="M3835 6855 c-104 -38 -145 -163 -82 -256 71 -106 238 -96 292 18 67
141 -65 291 -210 238z m50 -55 c0 -18 -6 -26 -23 -28 -13 -2 -25 3 -28 12 -10
26 4 48 28 44 17 -2 23 -10 23 -28z"/>
</g>
</svg>
